PathFileType  4	(X/Y/Z) C:\Users\antoi\Documents\MyRepositories\mobilecap\ResultsAnalysis
DataRate	CameraRate	NumFrames	NumMarkers	Units	OrigDataRate	OrigDataStartFrame	OrigNumFrames
100.0	100.0	6	51	mm	100.0	264	301
Frame#	Time	r_knee			r_shank_antsup			r_ankle			r_calc			r_5meta			r_toe			L_knee			L_shank_antsup			L_ankle			L_calc			L_5meta			L_toe			r_sh2			r_sh3			r_sh4			L_sh2			L_sh3			r_thigh1			r_thigh2			r_thigh3			r_thigh4			r_thigh5			L_thigh1			L_thigh2			L_thigh3			L_thigh4			r.ASIS			r.PSIS			L.ASIS			L.PSIS			C7			R_Shoulder			L_Shoulder			R_Sternum			L_Sternum			R_humerus			R_elbow_med			R_elbow_lat			R_forearm			R_wrist_radius			R_wrist_ulna			L_humerus			L_elbow_med			L_elbow_lat			L_forearm			L_wrist_radius			L_wrist_ulna			R_HJC			L_HJC			R_HJC_reg			L_HJC_reg			
		X1	Y1	Z1	X2	Y2	Z2	X3	Y3	Z3	X4	Y4	Z4	X5	Y5	Z5	X6	Y6	Z6	X7	Y7	Z7	X8	Y8	Z8	X9	Y9	Z9	X10	Y10	Z10	X11	Y11	Z11	X12	Y12	Z12	X13	Y13	Z13	X14	Y14	Z14	X15	Y15	Z15	X16	Y16	Z16	X17	Y17	Z17	X18	Y18	Z18	X19	Y19	Z19	X20	Y20	Z20	X21	Y21	Z21	X22	Y22	Z22	X23	Y23	Z23	X24	Y24	Z24	X25	Y25	Z25	X26	Y26	Z26	X27	Y27	Z27	X28	Y28	Z28	X29	Y29	Z29	X30	Y30	Z30	X31	Y31	Z31	X32	Y32	Z32	X33	Y33	Z33	X34	Y34	Z34	X35	Y35	Z35	X36	Y36	Z36	X37	Y37	Z37	X38	Y38	Z38	X39	Y39	Z39	X40	Y40	Z40	X41	Y41	Z41	X42	Y42	Z42	X43	Y43	Z43	X44	Y44	Z44	X45	Y45	Z45	X46	Y46	Z46	X47	Y47	Z47	X48	Y48	Z48	X49	Y49	Z49	X50	Y50	Z50	X51	Y51	Z51	

264	2.63000000	-143.50393	784.95236	-387.67500	-180.27676	746.41526	-358.78320	-270.87403	401.30515	-411.68052	-323.67970	426.29345	-467.60191	-236.89766	261.05555	-390.10197	-183.66032	250.61529	-437.00979	-107.90455	790.36673	-734.35667	-95.23749	706.43327	-747.07084	-227.29282	412.19161	-737.11000	-291.33615	421.98740	-686.39484	-179.38731	277.44088	-759.02850	-132.49289	264.98548	-707.44562	-213.05606	635.09565	-356.10949	-112.85614	730.46571	-393.13422	-142.64685	620.63873	-400.47471	-176.70764	739.03558	-758.68598	-208.75104	620.99425	-764.18593	-144.14155	1078.40185	-360.51022	-129.52207	965.20291	-351.58463	-78.81077	951.82116	-373.36858	-78.92608	1079.52956	-450.54754	-60.73623	969.80177	-437.41350	-122.31126	1109.50747	-735.49094	-102.41251	969.71536	-752.90506	-233.12975	1091.93238	-730.17321	-211.41563	952.99583	-715.17023	-100.82143	1251.73677	-425.31718	-278.03986	1302.00282	-510.75805	-94.66029	1235.72914	-664.42853	-277.37862	1299.48360	-606.78115	-117.84792	1750.29614	-565.70196	-67.14315	1721.53593	-407.44577	-71.42730	1704.77412	-711.29340	-26.33473	1638.61900	-546.09993	-22.78785	1638.80684	-572.50074	-82.64311	1556.93137	-231.82021	-129.27319	1446.36353	-212.44406	-105.92292	1493.00698	-164.23147	36.40207	1462.00053	-157.34394	130.80440	1425.73861	-178.43165	127.69466	1428.35796	-132.52624	-115.46974	1513.56011	-845.92140	-171.52132	1396.79137	-834.84471	-153.11542	1423.06685	-895.71015	-10.85729	1373.88850	-882.80333	81.98444	1346.36396	-841.95273	74.23351	1311.45470	-869.33751	-180.43604	1176.78130	-461.21560	-185.72644	1176.39610	-651.81302	-174.84830	1182.24203	-457.35254	-173.75874	1178.09735	-615.51269	
265	2.64000000	-144.64084	793.58268	-388.94945	-180.96141	755.22837	-360.04749	-269.07688	409.10847	-410.56369	-322.98387	432.66247	-466.38716	-232.52293	269.94839	-387.61443	-179.84736	259.72570	-435.27239	-107.23922	799.83290	-733.92610	-93.24677	715.50083	-745.86526	-225.16530	420.99190	-736.78920	-289.99518	429.71628	-686.49780	-174.87159	287.84563	-759.57395	-128.36938	275.43034	-705.82371	-213.38856	643.98832	-356.10750	-113.38929	739.41080	-394.24439	-142.48620	629.27485	-401.04493	-174.43038	748.16023	-759.24307	-206.21624	630.17207	-765.42326	-146.13545	1086.29338	-360.93546	-131.37378	973.33431	-352.41523	-80.63208	960.04366	-374.41272	-80.71093	1088.27299	-450.78331	-62.35557	978.35800	-438.17748	-124.12029	1118.02636	-736.09143	-103.30589	978.18888	-753.06021	-234.76961	1099.72132	-730.62017	-212.11282	961.05801	-714.86437	-102.52506	1259.38727	-425.84442	-280.29299	1309.41049	-510.35661	-96.88186	1243.97655	-664.36503	-279.51595	1307.73260	-606.01503	-118.19311	1758.09756	-565.49544	-66.21361	1727.53883	-405.97180	-71.02647	1711.26072	-712.63135	-26.86072	1646.47142	-546.60982	-23.02893	1647.08691	-572.60219	-78.28331	1556.11852	-236.80558	-123.75338	1445.07045	-220.99648	-100.85341	1489.84213	-170.73819	40.49561	1451.82221	-160.63899	133.58721	1410.37522	-179.63933	129.31023	1412.79603	-133.58543	-107.44466	1514.79988	-841.47734	-162.49984	1398.17261	-828.87186	-144.02474	1422.66565	-889.80159	-2.88481	1369.80857	-879.29362	89.77669	1339.42213	-840.13302	80.39652	1304.54277	-867.13892	-182.16854	1184.36346	-461.39233	-187.95123	1184.63622	-651.97541	-176.50113	1189.15644	-458.41996	-175.21984	1186.39200	-616.18578	
266	2.65000000	-146.89942	800.88635	-389.66230	-182.95162	762.11026	-361.14968	-266.57312	415.09154	-409.43690	-321.63182	436.26100	-465.03466	-225.97339	277.50654	-384.53770	-173.65078	267.89126	-432.67917	-106.79453	807.88293	-733.46465	-91.97905	723.13851	-744.98957	-222.84404	428.02795	-736.41496	-288.67843	435.13447	-686.75707	-169.06340	296.62541	-759.03868	-122.86970	285.42637	-703.84478	-213.55947	650.12116	-356.85339	-114.99709	747.05988	-395.06510	-142.72369	636.25754	-401.49619	-172.93560	755.55922	-760.03869	-204.20437	637.41054	-766.48182	-148.22785	1093.26573	-361.67180	-133.64141	980.52159	-353.29183	-82.85603	967.16162	-375.28181	-82.50937	1095.88472	-451.06975	-64.29157	985.81561	-438.90718	-125.46212	1125.67687	-736.23583	-103.94498	985.85609	-753.07742	-236.00344	1106.80412	-731.44732	-212.98747	968.38890	-715.49850	-103.75754	1266.20146	-426.83318	-282.06450	1316.23882	-509.73366	-98.86369	1251.47638	-664.11563	-281.24126	1315.51605	-605.41561	-118.39575	1764.70698	-565.25103	-65.01711	1733.17295	-405.07302	-71.31739	1717.51141	-713.85556	-27.05264	1653.75849	-547.06711	-24.35725	1653.37577	-574.72001	-75.16081	1556.45486	-241.52078	-119.93480	1445.43552	-228.27334	-96.68943	1488.08505	-176.66881	43.15712	1442.56708	-165.24992	134.25681	1395.77407	-183.29274	129.26545	1397.91265	-137.34738	-100.56262	1516.41941	-837.79401	-154.05348	1399.58327	-823.33791	-135.37356	1422.49821	-884.01561	4.27354	1365.89025	-875.37687	96.41383	1332.40208	-837.40430	85.48602	1297.72645	-864.09060	-183.57376	1191.24303	-461.66954	-189.99975	1192.25706	-652.23003	-177.73643	1195.44147	-459.87427	-176.38595	1194.25098	-616.80535	
267	2.66000000	-149.79075	807.00321	-389.98363	-185.55373	767.22297	-361.85437	-263.57425	419.43063	-408.72815	-319.77351	437.53639	-464.03472	-217.82536	284.10415	-381.18126	-165.85569	275.30942	-429.71118	-106.44410	814.45003	-733.03794	-91.30650	729.47095	-744.46245	-220.37629	433.41659	-735.98514	-287.40234	438.58071	-687.24554	-162.35565	303.99990	-757.16477	-116.47616	295.00343	-701.72367	-213.39870	654.07917	-358.11299	-117.25173	753.41771	-395.52139	-143.23857	641.96728	-401.83463	-172.13447	761.36443	-760.90673	-202.68650	642.90861	-767.10545	-150.39571	1099.31421	-362.61286	-136.19226	986.61867	-354.25819	-85.48922	972.98116	-376.20734	-84.27217	1102.02049	-451.60068	-66.49468	991.82692	-439.83917	-126.29322	1132.53530	-736.08026	-104.21067	992.81945	-753.03036	-236.75135	1113.32334	-732.73466	-213.87231	974.96875	-717.19020	-104.63728	1272.14203	-427.94790	-283.39208	1322.54199	-509.09697	-100.46516	1258.27578	-663.83326	-282.56766	1322.75913	-605.25236	-118.33681	1770.18574	-564.85636	-63.59675	1738.27877	-404.64946	-71.96633	1723.24963	-714.73894	-27.12330	1659.86718	-547.53930	-26.36820	1657.98412	-578.60093	-73.05558	1557.64247	-245.31672	-117.83884	1447.06053	-234.28682	-93.20521	1487.48303	-181.98691	44.52131	1434.06584	-170.85314	132.89311	1381.87754	-189.17452	127.79844	1383.82591	-143.23171	-94.72794	1517.87795	-834.66317	-146.48471	1400.72584	-818.27524	-127.16475	1422.38141	-878.52609	10.67578	1362.11457	-871.11658	102.09266	1325.62157	-834.16238	89.80407	1291.19591	-860.48412	-184.76954	1197.41049	-462.11924	-191.72754	1199.26567	-652.65508	-178.69911	1201.18325	-461.39633	-177.36154	1201.53438	-617.36666	
268	2.67000000	-153.00296	811.81538	-390.12011	-188.32507	770.97498	-362.10953	-260.32389	422.34416	-408.29596	-317.59407	436.96800	-463.72166	-208.79725	289.98485	-377.75882	-157.12230	282.13482	-426.73138	-106.56657	820.02736	-732.73732	-91.03556	734.59713	-744.21717	-217.82602	437.52036	-735.72879	-286.14078	440.27287	-687.79869	-155.04860	310.63529	-755.17552	-109.48390	303.92819	-699.74382	-213.61936	657.06688	-358.64157	-119.81768	758.43593	-395.79361	-143.94894	646.66812	-402.22085	-171.81639	765.84186	-761.83243	-201.56130	647.11425	-767.50682	-152.44115	1104.32081	-363.58961	-138.83481	991.50842	-355.23837	-88.33929	977.44196	-377.35618	-86.06944	1106.58810	-452.54176	-68.95881	996.26846	-440.90562	-126.68889	1138.56953	-735.69933	-104.03125	999.05385	-752.98765	-237.02043	1119.30405	-734.47638	-214.58378	980.76648	-719.78847	-105.25276	1276.98919	-428.99561	-284.23829	1328.23555	-508.64655	-101.78904	1264.50537	-663.57458	-283.38945	1329.38670	-605.37326	-117.92467	1774.77124	-564.26930	-61.94968	1742.56836	-404.69634	-72.44384	1727.80696	-715.34565	-26.60391	1664.87736	-547.70033	-27.03988	1662.31494	-580.96802	-71.42213	1558.97170	-248.47105	-117.24409	1449.45834	-239.16383	-90.35124	1487.60843	-186.70702	44.62607	1426.22041	-177.23106	129.70265	1368.89921	-196.95774	125.11059	1370.77316	-150.84990	-89.87679	1518.85733	-831.82136	-139.85361	1401.41339	-813.40390	-119.67095	1422.00085	-873.29218	16.32557	1358.40812	-866.60156	106.96705	1319.17909	-830.48939	93.43866	1285.02083	-856.41628	-185.81560	1202.69808	-462.83134	-193.09760	1205.72374	-653.33991	-179.57800	1206.32198	-462.88301	-178.21844	1208.16931	-617.92327	
269	2.68000000	-156.32501	815.15361	-390.24831	-191.05190	773.57127	-362.16153	-257.02908	424.15571	-407.86115	-315.19534	434.93354	-464.01431	-199.70826	295.09402	-374.71553	-148.01989	288.34059	-423.96489	-107.25046	824.77948	-732.49785	-90.93511	738.60196	-744.15874	-215.37598	440.54873	-735.59438	-284.84851	440.42078	-688.30695	-147.54611	316.57681	-753.70618	-102.23186	312.09491	-697.87183	-214.62720	659.58473	-357.90858	-122.47254	762.17395	-396.12841	-144.57942	650.19642	-402.71417	-171.77437	769.28876	-762.74769	-200.76258	650.36928	-767.84078	-154.06647	1108.07208	-364.59590	-141.25349	995.12789	-356.10483	-91.10364	980.49939	-378.71057	-87.91977	1109.66758	-453.89281	-71.64378	999.22182	-442.03391	-126.75577	1143.68104	-735.12044	-103.44800	1004.42290	-752.87629	-236.90818	1124.61592	-736.62048	-214.97119	985.76818	-723.01164	-105.79005	1280.43442	-429.89427	-284.64379	1333.20422	-508.39762	-103.03183	1270.00529	-663.06576	-283.82542	1335.22346	-605.61391	-117.12937	1778.40888	-563.72917	-59.85353	1745.86392	-405.21662	-72.35546	1730.88872	-715.95989	-24.23782	1670.20365	-546.55281	-25.42713	1666.81931	-579.95951	-69.79525	1559.96498	-251.37126	-117.86515	1452.09993	-242.88214	-88.19674	1487.96263	-190.60639	43.52673	1419.09872	-184.26220	124.89141	1356.99262	-206.31490	121.37672	1358.92477	-159.95073	-85.89221	1519.30537	-829.34722	-133.95268	1401.70488	-808.50591	-113.21508	1421.13705	-868.15769	21.20343	1354.68223	-862.04219	111.18279	1313.00683	-826.41977	96.37083	1279.13992	-851.94633	-186.93387	1206.89212	-463.70830	-194.26711	1211.47578	-654.18243	-180.55645	1210.83712	-464.10606	-179.25954	1214.03386	-618.12644	
